<svg xmlns="http://www.w3.org/2000/svg" xmlnsXlink="http://www.w3.org/1999/xlink" viewBox="30 336.7 120.9 129.2"><style type="text/css">
    .st0{fill:#FFD400;}
    .st1{fill:#FF3333;}
    .st2{fill:#48FF48;}
    .st3{fill:#3BCCFF;}
</style><path class="st0" d="M119.2 421.2c15.3-8.4 27-14.8 28-15.3 3.2-1.7 6.5-6.2 0-9.7 -2.1-1.1-13.4-7.3-28-15.3l-20.1 20.2L119.2 421.2z"/><path class="st1" d="M99.1 401.1l-64.2 64.7c1.5 0.2 3.2-0.2 5.2-1.3 4.2-2.3 48.8-26.7 79.1-43.3L99.1 401.1 99.1 401.1z"/><path class="st2" d="M99.1 401.1l20.1-20.2c0 0-74.6-40.7-79.1-43.1 -1.7-1-3.6-1.3-5.3-1L99.1 401.1z"/><path class="st3" d="M99.1 401.1l-64.3-64.3c-2.6 0.6-4.8 2.9-4.8 7.6 0 7.5 0 107.5 0 113.8 0 4.3 1.7 7.4 4.9 7.7L99.1 401.1z"/></svg>
